<mxfile host="app.diagrams.net" agent="Mozilla/5.0 (Windows NT 10.0; Win64; x64) AppleWebKit/537.36 (KHTML, like Gecko) Chrome/131.0.0.0 Safari/537.36" version="25.0.3">
  <diagram id="C5RBs43oDa-KdzZeNtuy" name="Page-1">
    <mxGraphModel dx="1459" dy="2930" grid="1" gridSize="10" guides="1" tooltips="1" connect="1" arrows="1" fold="1" page="1" pageScale="1" pageWidth="827" pageHeight="1169" math="0" shadow="0">
      <root>
        <mxCell id="WIyWlLk6GJQsqaUBKTNV-0" />
        <mxCell id="WIyWlLk6GJQsqaUBKTNV-1" parent="WIyWlLk6GJQsqaUBKTNV-0" />
        <mxCell id="8lLguM_5Jq3QPkRu8nKn-2" value="" style="edgeStyle=orthogonalEdgeStyle;rounded=0;orthogonalLoop=1;jettySize=auto;html=1;" edge="1" parent="WIyWlLk6GJQsqaUBKTNV-1" source="8lLguM_5Jq3QPkRu8nKn-0" target="8lLguM_5Jq3QPkRu8nKn-1">
          <mxGeometry relative="1" as="geometry" />
        </mxCell>
        <mxCell id="8lLguM_5Jq3QPkRu8nKn-0" value="INICIO" style="ellipse;whiteSpace=wrap;html=1;aspect=fixed;fillColor=#d80073;fontColor=#ffffff;strokeColor=#A50040;" vertex="1" parent="WIyWlLk6GJQsqaUBKTNV-1">
          <mxGeometry x="270" y="-2130" width="80" height="80" as="geometry" />
        </mxCell>
        <mxCell id="8lLguM_5Jq3QPkRu8nKn-6" value="" style="edgeStyle=orthogonalEdgeStyle;rounded=0;orthogonalLoop=1;jettySize=auto;html=1;" edge="1" parent="WIyWlLk6GJQsqaUBKTNV-1" source="8lLguM_5Jq3QPkRu8nKn-1" target="8lLguM_5Jq3QPkRu8nKn-4">
          <mxGeometry relative="1" as="geometry" />
        </mxCell>
        <mxCell id="8lLguM_5Jq3QPkRu8nKn-1" value="&lt;div&gt;Definir&amp;nbsp; tipo_cambio_eur_mxn = 23.70&lt;/div&gt;&lt;div&gt;&amp;nbsp; &amp;nbsp;Definir tipo_cambio_usd_mxn = 20.75&lt;/div&gt;" style="rounded=1;whiteSpace=wrap;html=1;fillColor=#ffcc99;strokeColor=#36393d;" vertex="1" parent="WIyWlLk6GJQsqaUBKTNV-1">
          <mxGeometry x="207.5" y="-1970" width="205" height="80" as="geometry" />
        </mxCell>
        <mxCell id="8lLguM_5Jq3QPkRu8nKn-9" value="" style="edgeStyle=orthogonalEdgeStyle;rounded=0;orthogonalLoop=1;jettySize=auto;html=1;" edge="1" parent="WIyWlLk6GJQsqaUBKTNV-1" source="8lLguM_5Jq3QPkRu8nKn-4" target="8lLguM_5Jq3QPkRu8nKn-8">
          <mxGeometry relative="1" as="geometry" />
        </mxCell>
        <mxCell id="8lLguM_5Jq3QPkRu8nKn-4" value="Mostrar mensaje: &quot;Ingrese la moneda de origen para la conversión (EUR/USD):&quot;" style="shape=parallelogram;perimeter=parallelogramPerimeter;whiteSpace=wrap;html=1;fixedSize=1;fillColor=#d5e8d4;strokeColor=#82b366;" vertex="1" parent="WIyWlLk6GJQsqaUBKTNV-1">
          <mxGeometry x="187.5" y="-1850" width="245" height="80" as="geometry" />
        </mxCell>
        <mxCell id="8lLguM_5Jq3QPkRu8nKn-11" value="" style="edgeStyle=orthogonalEdgeStyle;rounded=0;orthogonalLoop=1;jettySize=auto;html=1;" edge="1" parent="WIyWlLk6GJQsqaUBKTNV-1" source="8lLguM_5Jq3QPkRu8nKn-8" target="8lLguM_5Jq3QPkRu8nKn-10">
          <mxGeometry relative="1" as="geometry" />
        </mxCell>
        <mxCell id="8lLguM_5Jq3QPkRu8nKn-8" value="&amp;nbsp;Mostrar mensaje: &quot;Ingrese el monto a convertir&quot;" style="shape=parallelogram;perimeter=parallelogramPerimeter;whiteSpace=wrap;html=1;fixedSize=1;fillColor=#d5e8d4;strokeColor=#82b366;" vertex="1" parent="WIyWlLk6GJQsqaUBKTNV-1">
          <mxGeometry x="210" y="-1710" width="200" height="90" as="geometry" />
        </mxCell>
        <mxCell id="8lLguM_5Jq3QPkRu8nKn-13" value="" style="edgeStyle=orthogonalEdgeStyle;rounded=0;orthogonalLoop=1;jettySize=auto;html=1;" edge="1" parent="WIyWlLk6GJQsqaUBKTNV-1" source="8lLguM_5Jq3QPkRu8nKn-10" target="8lLguM_5Jq3QPkRu8nKn-12">
          <mxGeometry relative="1" as="geometry" />
        </mxCell>
        <mxCell id="8lLguM_5Jq3QPkRu8nKn-24" style="edgeStyle=orthogonalEdgeStyle;rounded=0;orthogonalLoop=1;jettySize=auto;html=1;entryX=0.5;entryY=0;entryDx=0;entryDy=0;" edge="1" parent="WIyWlLk6GJQsqaUBKTNV-1" source="8lLguM_5Jq3QPkRu8nKn-10" target="8lLguM_5Jq3QPkRu8nKn-17">
          <mxGeometry relative="1" as="geometry" />
        </mxCell>
        <mxCell id="8lLguM_5Jq3QPkRu8nKn-10" value="&amp;nbsp;Si tipo_conversion == EUR" style="rhombus;whiteSpace=wrap;html=1;fillColor=#1ba1e2;fontColor=#ffffff;strokeColor=#006EAF;" vertex="1" parent="WIyWlLk6GJQsqaUBKTNV-1">
          <mxGeometry x="216.25" y="-1560" width="187.5" height="160" as="geometry" />
        </mxCell>
        <mxCell id="8lLguM_5Jq3QPkRu8nKn-16" value="" style="edgeStyle=orthogonalEdgeStyle;rounded=0;orthogonalLoop=1;jettySize=auto;html=1;" edge="1" parent="WIyWlLk6GJQsqaUBKTNV-1" source="8lLguM_5Jq3QPkRu8nKn-12" target="8lLguM_5Jq3QPkRu8nKn-15">
          <mxGeometry relative="1" as="geometry" />
        </mxCell>
        <mxCell id="8lLguM_5Jq3QPkRu8nKn-12" value="Calcular resultado = monto_a_convertir * tipo_cambio_eur_mex" style="rounded=1;whiteSpace=wrap;html=1;fillColor=#ffcc99;strokeColor=#36393d;" vertex="1" parent="WIyWlLk6GJQsqaUBKTNV-1">
          <mxGeometry x="500" y="-1522.5" width="230" height="85" as="geometry" />
        </mxCell>
        <mxCell id="8lLguM_5Jq3QPkRu8nKn-14" value="SI" style="rounded=0;whiteSpace=wrap;html=1;fillColor=#008a00;fontColor=#ffffff;strokeColor=#005700;" vertex="1" parent="WIyWlLk6GJQsqaUBKTNV-1">
          <mxGeometry x="410" y="-1510" width="60" height="20" as="geometry" />
        </mxCell>
        <mxCell id="8lLguM_5Jq3QPkRu8nKn-41" style="edgeStyle=orthogonalEdgeStyle;rounded=0;orthogonalLoop=1;jettySize=auto;html=1;exitX=1;exitY=0.5;exitDx=0;exitDy=0;" edge="1" parent="WIyWlLk6GJQsqaUBKTNV-1" source="8lLguM_5Jq3QPkRu8nKn-15">
          <mxGeometry relative="1" as="geometry">
            <mxPoint x="760" y="-830" as="targetPoint" />
          </mxGeometry>
        </mxCell>
        <mxCell id="8lLguM_5Jq3QPkRu8nKn-15" value="Mostrar&amp;nbsp; &quot;El resultado de la conversion de EUR a MXN es: &quot;,resultado" style="shape=parallelogram;perimeter=parallelogramPerimeter;whiteSpace=wrap;html=1;fixedSize=1;fillColor=#cdeb8b;strokeColor=#36393d;" vertex="1" parent="WIyWlLk6GJQsqaUBKTNV-1">
          <mxGeometry x="514.38" y="-1380" width="201.25" height="70" as="geometry" />
        </mxCell>
        <mxCell id="8lLguM_5Jq3QPkRu8nKn-20" value="" style="edgeStyle=orthogonalEdgeStyle;rounded=0;orthogonalLoop=1;jettySize=auto;html=1;" edge="1" parent="WIyWlLk6GJQsqaUBKTNV-1" source="8lLguM_5Jq3QPkRu8nKn-17" target="8lLguM_5Jq3QPkRu8nKn-18">
          <mxGeometry relative="1" as="geometry" />
        </mxCell>
        <mxCell id="8lLguM_5Jq3QPkRu8nKn-27" value="" style="edgeStyle=orthogonalEdgeStyle;rounded=0;orthogonalLoop=1;jettySize=auto;html=1;" edge="1" parent="WIyWlLk6GJQsqaUBKTNV-1" source="8lLguM_5Jq3QPkRu8nKn-17" target="8lLguM_5Jq3QPkRu8nKn-26">
          <mxGeometry relative="1" as="geometry" />
        </mxCell>
        <mxCell id="8lLguM_5Jq3QPkRu8nKn-17" value="&amp;nbsp;Si tipo_conversion == USD" style="rhombus;whiteSpace=wrap;html=1;fillColor=#1ba1e2;fontColor=#ffffff;strokeColor=#006EAF;" vertex="1" parent="WIyWlLk6GJQsqaUBKTNV-1">
          <mxGeometry x="216.25" y="-1280" width="187.5" height="160" as="geometry" />
        </mxCell>
        <mxCell id="8lLguM_5Jq3QPkRu8nKn-22" value="" style="edgeStyle=orthogonalEdgeStyle;rounded=0;orthogonalLoop=1;jettySize=auto;html=1;" edge="1" parent="WIyWlLk6GJQsqaUBKTNV-1" source="8lLguM_5Jq3QPkRu8nKn-18" target="8lLguM_5Jq3QPkRu8nKn-19">
          <mxGeometry relative="1" as="geometry" />
        </mxCell>
        <mxCell id="8lLguM_5Jq3QPkRu8nKn-18" value="Calcular resultado = monto_a_convertir * tipo_cambio_usd_mex" style="rounded=1;whiteSpace=wrap;html=1;fillColor=#ffcc99;strokeColor=#36393d;" vertex="1" parent="WIyWlLk6GJQsqaUBKTNV-1">
          <mxGeometry x="500" y="-1242.5" width="230" height="85" as="geometry" />
        </mxCell>
        <mxCell id="8lLguM_5Jq3QPkRu8nKn-38" style="edgeStyle=orthogonalEdgeStyle;rounded=0;orthogonalLoop=1;jettySize=auto;html=1;exitX=0.5;exitY=1;exitDx=0;exitDy=0;entryX=1;entryY=0.5;entryDx=0;entryDy=0;" edge="1" parent="WIyWlLk6GJQsqaUBKTNV-1" source="8lLguM_5Jq3QPkRu8nKn-19" target="8lLguM_5Jq3QPkRu8nKn-29">
          <mxGeometry relative="1" as="geometry" />
        </mxCell>
        <mxCell id="8lLguM_5Jq3QPkRu8nKn-19" value="Mostrar&amp;nbsp; &quot;El resultado de la conversion de USD a MXN es: &quot;,resultado" style="shape=parallelogram;perimeter=parallelogramPerimeter;whiteSpace=wrap;html=1;fixedSize=1;fillColor=#cdeb8b;strokeColor=#36393d;" vertex="1" parent="WIyWlLk6GJQsqaUBKTNV-1">
          <mxGeometry x="515" y="-1090" width="200.63" height="70" as="geometry" />
        </mxCell>
        <mxCell id="8lLguM_5Jq3QPkRu8nKn-21" value="SI" style="rounded=0;whiteSpace=wrap;html=1;fillColor=#008a00;fontColor=#ffffff;strokeColor=#005700;" vertex="1" parent="WIyWlLk6GJQsqaUBKTNV-1">
          <mxGeometry x="414" y="-1230" width="60" height="20" as="geometry" />
        </mxCell>
        <mxCell id="8lLguM_5Jq3QPkRu8nKn-25" value="&lt;div&gt;No&lt;/div&gt;" style="rounded=0;whiteSpace=wrap;html=1;fillColor=#ffcccc;strokeColor=#36393d;" vertex="1" parent="WIyWlLk6GJQsqaUBKTNV-1">
          <mxGeometry x="313.75" y="-1370" width="66.25" height="30" as="geometry" />
        </mxCell>
        <mxCell id="8lLguM_5Jq3QPkRu8nKn-30" value="" style="edgeStyle=orthogonalEdgeStyle;rounded=0;orthogonalLoop=1;jettySize=auto;html=1;" edge="1" parent="WIyWlLk6GJQsqaUBKTNV-1" source="8lLguM_5Jq3QPkRu8nKn-26" target="8lLguM_5Jq3QPkRu8nKn-29">
          <mxGeometry relative="1" as="geometry" />
        </mxCell>
        <mxCell id="8lLguM_5Jq3QPkRu8nKn-26" value="Mostrar: &quot;No está disponible este tipo de conversión actualmente&quot;" style="shape=parallelogram;perimeter=parallelogramPerimeter;whiteSpace=wrap;html=1;fixedSize=1;fillColor=#cdeb8b;strokeColor=#36393d;" vertex="1" parent="WIyWlLk6GJQsqaUBKTNV-1">
          <mxGeometry x="182.5" y="-1020" width="255" height="50" as="geometry" />
        </mxCell>
        <mxCell id="8lLguM_5Jq3QPkRu8nKn-28" value="No" style="rounded=0;whiteSpace=wrap;html=1;fillColor=#ffcccc;strokeColor=#36393d;" vertex="1" parent="WIyWlLk6GJQsqaUBKTNV-1">
          <mxGeometry x="313.75" y="-1090" width="70" height="30" as="geometry" />
        </mxCell>
        <mxCell id="8lLguM_5Jq3QPkRu8nKn-40" style="edgeStyle=orthogonalEdgeStyle;rounded=0;orthogonalLoop=1;jettySize=auto;html=1;exitX=1;exitY=1;exitDx=0;exitDy=0;" edge="1" parent="WIyWlLk6GJQsqaUBKTNV-1" source="8lLguM_5Jq3QPkRu8nKn-29">
          <mxGeometry relative="1" as="geometry">
            <mxPoint x="760" y="-832" as="targetPoint" />
          </mxGeometry>
        </mxCell>
        <mxCell id="8lLguM_5Jq3QPkRu8nKn-29" value="FIN" style="ellipse;whiteSpace=wrap;html=1;fillColor=#d80073;fontColor=#ffffff;strokeColor=#A50040;" vertex="1" parent="WIyWlLk6GJQsqaUBKTNV-1">
          <mxGeometry x="270" y="-900" width="80" height="80" as="geometry" />
        </mxCell>
      </root>
    </mxGraphModel>
  </diagram>
</mxfile>
